# xmcd
#
# Track frame offsets: 
#        150
#        14502
#        30834
#        42201
#        54876
#        70265
#        87484
#        101906
#        129659
#        139351
#        152011
#        171616
#        183109
#
# Disc length: 2688 seconds
#
# Revision: 0
# Processed by: cddbd v1.5.1PL0 Copyright (c) Steve Scherf et al.
# Submitted via: ExactAudioCopy v0.95a5
#
DISCID=af0a7e0d
DTITLE=Chad Manning - Old Gnarly Oak
DYEAR=2003
DGENRE=Bluegrass
TTITLE0=Fast Ruby, The Slowest Mule (Chad Manning)
TTITLE1=Dixie Queen (Chad Manning)
TTITLE2=Old Gnarly Oak (Chad Manning)
TTITLE3=Apple Blossom (Traditional)
TTITLE4=When that Whistle Blows (Chad Manning)
TTITLE5=Mouse's Lullaby (Chad Manning)
TTITLE6=Roanoke (Bill Monroe)
TTITLE7=Crimson Flats (Chad Manning)
TTITLE8=Crafton's Blues (Traditional)
TTITLE9=Liar at the Crossroads (Chad Manning)
TTITLE10=Catherine's Waltz (Chad Manning)
TTITLE11=Cold Rolled Steel (Herman Johnson)
TTITLE12=Cumberland Gap (Traditional)
EXTD=
EXTT0=
EXTT1=
EXTT2=
EXTT3=
EXTT4=
EXTT5=
EXTT6=
EXTT7=
EXTT8=
EXTT9=
EXTT10=
EXTT11=
EXTT12=
PLAYORDER=
